<?xml version="1.0" encoding="utf-8"?>
<!-- Generator: Adobe Illustrator 18.0.0, SVG Export Plug-In . SVG Version: 6.00 Build 0)  -->
<!DOCTYPE svg PUBLIC "-//W3C//DTD SVG 1.1//EN" "http://www.w3.org/Graphics/SVG/1.1/DTD/svg11.dtd">
<svg version="1.1" id="Ebene_1" xmlns="http://www.w3.org/2000/svg" xmlns:xlink="http://www.w3.org/1999/xlink" x="0px" y="0px"
	 viewBox="0 212.9 595.3 416" enable-background="new 0 212.9 595.3 416" xml:space="preserve">
<g>
	<path fill="#000000" d="M147.4,423.8c0-0.9,0.9-1.6,2.4-1.6c1.3,0,2.6,0.5,3.9,1.4l1.3-1.9c-1.4-1.1-3.1-1.8-5.2-1.8
		c-2.9,0-4.8,1.6-4.8,4.2c0,2.6,1.6,3.5,4.8,4.3c2.6,0.6,3.3,1.1,3.3,2.2c0,1-1,1.8-2.5,1.8c-1.8,0-3.1-0.6-4.5-1.8l-1.5,1.8
		c1.6,1.5,3.8,2.4,5.9,2.4c3,0,5-1.5,5-4.3c0-2.4-1.5-3.5-4.5-4.2C148,425.4,147.4,424.9,147.4,423.8 M172.9,420h-10.6v14.3h10.6
		V432h-8.2v-3.8h7.2V426h-7.2v-3.8h8.1v-2.4h0.1V420z M185.8,431l-4.3-11h-2.7l5.9,14.4h2.2l5.9-14.4h-2.8L185.8,431z M209.9,420
		h-10.5v14.3H210V432h-8.2v-3.8h7.2V426h-7.2v-3.8h8.1L209.9,420L209.9,420z M227.1,429.9l-7.7-9.8h-2.4v14.3h2.5v-10.1l7.9,10.1h2
		v-14.3H227v9.8H227.1z M243.2,422.3h4.5V420h-11.5v2.4h4.5v12h2.5v-12H243.2z M263.8,428.3v5.9h2.5v-14.3h-2.5v5.9H257v-5.9h-2.5
		v14.3h2.5v-5.9H263.8z M279.3,426.8h-5.9v2.5h5.9V426.8z M299.3,427.1c0-4-3.1-7.2-7.6-7.2h-5.3v14.3h5.3
		C296.2,434.3,299.3,431.1,299.3,427.1 M296.7,427.2c0,2.9-1.9,4.8-4.9,4.8h-2.9v-9.7h2.9C294.7,422.3,296.7,424.4,296.7,427.2
		 M312.7,420h-2.4l-6.2,14.4h2.6l1.4-3.5h6.7l1.4,3.5h2.6L312.7,420z M314,428.7h-4.9l2.5-5.7L314,428.7z M330,428.7l5.7-8.6h-2.9
		l-4,6.3l-4-6.3h-3l5.7,8.7v5.6h2.5L330,428.7L330,428.7z"/>
	<path fill="#000000" d="M152.5,450.4h-2.2l-6.2,14.4h2.6l1.4-3.5h6.7l1.4,3.5h2.6L152.5,450.4z M153.8,459.1h-4.9l2.5-5.7
		L153.8,459.1z M178.2,457.7c0-4-3.1-7.2-7.6-7.2h-5.3v14.3h5.3C175.2,464.8,178.2,461.8,178.2,457.7 M175.6,457.7
		c0,2.9-1.9,4.8-4.9,4.8h-2.9v-9.7h2.9C173.6,452.9,175.6,454.8,175.6,457.7 M190.3,461.5l-4.3-11h-2.8l5.9,14.4h2.2l5.9-14.4h-2.8
		L190.3,461.5z M214.4,450.6h-10.6v14.3h10.6v-2.2h-8.2v-3.9h7.2v-2.2h-7.2v-3.8h8.1v-2.2L214.4,450.6L214.4,450.6z M231.5,460.4
		l-7.7-9.8h-2.4v14.3h2.5v-10.1l7.9,10.1h2v-14.3h-2.5v9.8H231.5z M247.7,452.9h4.5v-2.4h-11.5v2.4h4.5v12h2.5v-12H247.7z
		 M259.1,464.8h2.5v-14.3h-2.5V464.8z M271.5,454.3c0-0.9,0.9-1.6,2.4-1.6c1.3,0,2.6,0.5,3.9,1.4l1.3-1.9c-1.4-1.1-3.1-1.8-5.2-1.8
		c-2.9,0-4.9,1.6-4.9,4.2c0,2.6,1.6,3.5,4.8,4.3c2.6,0.6,3.3,1.1,3.3,2.2c0,1.1-1,1.8-2.5,1.8c-1.8,0-3.1-0.6-4.5-1.8l-1.5,1.8
		c1.6,1.5,3.8,2.4,5.9,2.4c3,0,5-1.5,5-4.3c0-2.4-1.5-3.5-4.5-4.2C272.1,455.9,271.5,455.3,271.5,454.3 M292.3,452.9h4.5v-2.4h-11.5
		v2.4h4.5v12h2.5v-12H292.3z"/>
	<path fill="#000000" d="M154.4,489.4v5.9h2.5V481h-2.5v5.9h-6.7V481h-2.5v14.3h2.5v-5.9H154.4z M164.8,495.3h2.5V481h-2.5V495.3z
		 M188,493.3v-5.9h-6.1v2.2h3.7v2.8c-0.9,0.6-2,1-3.5,1c-2.9,0-4.8-2.2-4.8-5c0-2.8,1.9-5,4.7-5c1.8,0,2.9,0.6,4,1.5l1.5-1.9
		c-1.4-1.3-3-1.9-5.4-1.9c-4.3,0-7.4,3.4-7.4,7.4c0,4.2,3,7.4,7.4,7.4C184.6,495.6,186.6,494.6,188,493.3 M204.6,489.4v5.9h2.5V481
		h-2.5v5.9h-6.7V481h-2.5v14.3h2.5v-5.9H204.6z M225.3,481.2h-10.5v14.3h10.6v-2.2h-8.2v-3.9h7.2v-2.2h-7.2v-3.8h8.1L225.3,481.2
		L225.3,481.2z M244.7,495.3l-3.9-5.4c1.9-0.5,3.4-1.9,3.4-4.4c0-2.8-2-4.5-5.3-4.5h-6.3v14.3h2.5v-4.9h3.1l3.5,4.9h3.1v0H244.7z
		 M241.7,485.7c0,1.4-1.1,2.5-3,2.5H235v-4.8h3.7C240.6,483.4,241.7,484.2,241.7,485.7"/>
	<path fill="#000000" d="M155.7,511.6h-10.5v14.3h10.6v-2.2h-8.2v-3.8h7.2v-2.2h-7.2v-3.8h8.1L155.7,511.6L155.7,511.6z
		 M175.9,518.8c0-4-3.1-7.2-7.6-7.2H163v14.3h5.3C172.7,525.9,175.9,522.8,175.9,518.8 M173.1,518.8c0,2.9-1.9,4.8-4.9,4.8h-2.9
		v-9.7h2.9C171.2,514,173.1,515.9,173.1,518.8 M194.9,511.6h-2.5v8.2c0,2.6-1.3,4-3.7,4c-2.2,0-3.7-1.4-3.7-4v-8.1h-2.5v8.2
		c0,4.2,2.4,6.2,6.1,6.2s6.1-2,6.1-6.3V511.6z M214.7,523.6l-1.5-1.6c-1.1,1.1-2.4,1.8-4.2,1.8c-2.8,0-4.7-2.4-4.7-5
		c0-2.9,1.9-5,4.7-5c1.6,0,2.9,0.6,4,1.8l1.5-1.8c-1.4-1.3-3-2.2-5.6-2.2c-4.3,0-7.4,3.4-7.4,7.4c0,4.2,3.1,7.4,7.3,7.4
		C211.6,526.2,213.3,525.1,214.7,523.6 M228.9,511.5h-2.4l-6.2,14.4h2.6l1.4-3.5h6.7l1.4,3.5h2.6L228.9,511.5z M230.1,520.2h-4.9
		l2.5-5.7L230.1,520.2z M245.9,514h4.5v-2.4h-11.5v2.4h4.5v12h2.5v-12H245.9z M257.2,525.9h2.5v-14.3h-2.5V525.9z M282,518.8
		c0-4-3.1-7.4-7.4-7.4c-4.4,0-7.6,3.4-7.6,7.4c0,4,3.1,7.4,7.4,7.4C278.8,526.2,282,522.8,282,518.8 M279.2,518.8c0,2.9-1.9,5-4.8,5
		c-2.9,0-4.8-2.4-4.8-5c0-2.7,1.9-5,4.8-5C277.3,513.7,279.2,516,279.2,518.8 M298.9,521.6l-7.7-9.8H289v14.3h2.5v-10.1l7.9,10.1h2
		v-14.3h-2.5V521.6L298.9,521.6L298.9,521.6z"/>
	<path fill="#000000" d="M554.6,286.7l-0.8-1.8c-2.8,1.5-4,2-5.4,2c-2.6,0-2.8-3.3-2.8-5.9c0-2.9,0.9-18.9,0.9-26.4
		c0-12.4-5.3-19.1-17.7-19.1c-14,0-20.1,9.6-20.1,16.5c0,1.9,0.6,3,1.6,3c0.6,0,1.5-0.4,3-1.4c1.6-1.1,2.5-2,2.5-3.7
		c0-1.4-0.3-2.4-0.3-3.7c0-5.3,4.9-8.3,11.5-8.3c7.6,0,11.2,4.3,11.2,14c0,2.4-0.1,4.5-0.4,9.3c-20.4,1.5-32.4,7.7-32.4,19.8
		c0,5.8,3.7,12.4,13.5,12.4c8.2,0,14-3.8,18-6.3c1.4,3.5,3.5,6.3,6.1,6.3c1,0,2.4-0.4,7.6-4.3L554.6,286.7z M537.8,263.7l-0.9,20.8
		c-5,3.5-10.1,4.7-13.4,4.7c-5.7,0-9.5-3.7-9.5-10C514.1,268.5,524.9,264.2,537.8,263.7 M488.8,291.7c3.8,0,10.6,0.3,12.1,0.3v-1.9
		c-5.3-0.1-6.7-0.5-7.2-1c-0.5-0.5-0.6-1.4-0.6-6.6v-47.6c0-8.7,0.3-17.5,0.9-21.9l-17.9,2v1.9h5.2c1.6,0,2.2,0.1,2.6,0.5
		c0.4,0.4,0.6,1.3,0.6,6.7v58.3c0,5.2-0.1,5.9-0.6,6.6c-0.4,0.5-1.8,0.9-8.1,1v1.9C478.1,292,484.4,291.7,488.8,291.7 M459.9,291.7
		c3.8,0,10.6,0.3,12.1,0.3v-1.9c-5.3-0.1-6.7-0.5-7.2-1c-0.5-0.5-0.6-1.4-0.6-6.6v-47.6c0-8.7,0.3-17.5,0.9-21.9l-17.8,2v1.9h5.2
		c1.6,0,2.2,0.1,2.6,0.5c0.4,0.4,0.6,1.3,0.6,6.7v58.3c0,5.2-0.1,5.9-0.6,6.6c-0.4,0.5-1.8,0.9-8.1,1v1.9
		C449.1,292,455.4,291.7,459.9,291.7 M440.6,289.2l3.7-2.5l-0.8-1.8c-2.8,1.5-4,2-5.4,2c-2.6,0-2.8-3.3-2.8-5.9
		c0-2.9,0.9-18.9,0.9-26.4c0-12.4-5.3-19.1-17.7-19.1c-14,0-20.1,9.6-20.1,16.5c0,1.9,0.6,3,1.6,3c0.6,0,1.5-0.4,3-1.4
		c1.6-1.1,2.5-2,2.5-3.7c0-1.4-0.3-2.4-0.3-3.7c0-5.3,4.9-8.3,11.5-8.3c7.6,0,11.2,4.3,11.2,14c0,2.4-0.1,4.5-0.4,9.3
		c-20.4,1.5-32.4,7.7-32.4,19.8c0,5.8,3.7,12.4,13.5,12.4c8.2,0,14-3.8,18-6.3c1.4,3.5,3.5,6.3,6.1,6.3
		C434.1,293.5,435.2,293,440.6,289.2 M427.7,263.7l-0.9,20.8c-5,3.5-10.1,4.7-13.4,4.7c-5.7,0-9.5-3.7-9.5-10
		C403.9,268.5,414.7,264.2,427.7,263.7 M408.9,216.6v-2.4c-3.3,0.1-6.7,0.3-9.5,0.3c-3.5,0-7.4-0.1-10.7-0.3v2.4
		c3.8,0.1,5.7,0.3,7.2,0.5c1.5,0.3,2,0.8,2,1.8c0,1.1-0.5,3-1,4.9l-20.3,58.9c-0.1,0.4-0.3,0.6-0.6,0.6c-0.3,0-0.4-0.3-0.5-0.6
		l-17.1-59.4c-0.6-2.2-0.9-3-0.9-4c0-1.1,0.8-2,3.1-2.2l5.9-0.5v-2.4c-2.2,0-9.3,0.3-14.1,0.3c-5.3,0-11.8-0.3-13.5-0.3v2.4
		c7.4,0.3,7.6,0.4,9.5,7.3l1.9,6.8l-18.3,52c-0.1,0.4-0.3,0.6-0.6,0.6c-0.3,0-0.4-0.3-0.5-0.6l-20.1-58.4c-0.6-1.8-1.1-3.9-1.1-5
		c0-1.9,1-2,8.4-2.6v-2.5c-2,0-8.8,0.3-13.4,0.3c-4.3,0-11-0.3-12.7-0.3v2.4c6.2,0.1,6.4,0.4,8.4,6.1l24,68.8c0.9,2.8,1.3,3.7,2,3.7
		c1.1,0,1.4-1.6,2.8-4c2.5-4.3,3.4-3.8,4.8-7.8l17.1-45.3c0.1-0.4,0.3-0.8,0.5-0.8c0.4,0,0.5,0.4,0.6,0.8l16,51.8c1.1,4,1.4,5,2.4,5
		s1.3-1.1,2.6-3.8c2.6-4.5,3.8-4,5.2-8.4l22.3-60.5C402.7,216.9,404.2,216.8,408.9,216.6 M273.6,289.2l3.7-2.5l-0.8-1.8
		c-2.8,1.5-4,2-5.4,2c-2.6,0-2.8-3.3-2.8-5.9c0-2.9,0.9-18.9,0.9-26.4c0-12.4-5.3-19.1-17.7-19.1c-14,0-20.1,9.6-20.1,16.5
		c0,1.9,0.6,3,1.6,3c0.6,0,1.5-0.4,3-1.4c1.6-1.1,2.5-2,2.5-3.7c0-1.4-0.3-2.4-0.3-3.7c0-5.3,4.9-8.3,11.5-8.3
		c7.6,0,11.2,4.3,11.2,14c0,2.4-0.1,4.5-0.4,9.3c-20.4,1.5-32.4,7.7-32.4,19.8c0,5.8,3.7,12.4,13.5,12.4c8.2,0,14-3.8,18-6.3
		c1.4,3.5,3.5,6.3,6.1,6.3C267.1,293.5,268.5,293,273.6,289.2 M260.6,263.7l-0.9,20.8c-5,3.5-10.1,4.7-13.4,4.7
		c-5.7,0-9.5-3.7-9.5-10C236.9,268.5,247.7,264.2,260.6,263.7 M211.6,291.7c3.8,0,10.6,0.3,12.1,0.3v-1.9c-5.3-0.1-6.7-0.5-7.2-1
		c-0.5-0.5-0.6-1.4-0.6-6.6v-47.6c0-8.7,0.3-17.5,0.9-21.9l-17.8,2v1.9h5.2c1.6,0,2.2,0.1,2.6,0.5c0.4,0.4,0.6,1.3,0.6,6.7v58.3
		c0,5.2-0.1,5.9-0.6,6.6c-0.4,0.5-1.8,0.9-8.1,1v1.9C200.9,292,207.2,291.7,211.6,291.7 M182.7,291.7c3.8,0,10.6,0.3,12.1,0.3v-1.9
		c-5.3-0.1-6.7-0.5-7.2-1c-0.5-0.5-0.6-1.4-0.6-6.6v-47.6c0-8.7,0.3-17.5,0.9-21.9l-17.8,2v1.9h5.2c1.6,0,2.2,0.1,2.6,0.5
		c0.4,0.4,0.6,1.3,0.6,6.7v58.3c0,5.2-0.1,5.9-0.6,6.6c-0.4,0.5-1.8,0.9-8.1,1v1.9C172,292,178.2,291.7,182.7,291.7 M163.4,289.2
		l3.7-2.5l-0.8-1.8c-2.8,1.5-4,2-5.4,2c-2.8,0-2.8-3.3-2.8-5.9c0-2.9,0.9-18.9,0.9-26.4c0-12.4-5.3-19.1-17.7-19.1
		c-14,0-20.1,9.6-20.1,16.5c0,1.9,0.6,3,1.6,3c0.6,0,1.5-0.4,3-1.4c1.6-1.1,2.5-2,2.5-3.7c0-1.4-0.3-2.4-0.3-3.7
		c0-5.3,4.9-8.3,11.5-8.3c7.6,0,11.2,4.3,11.2,14c0,2.4-0.1,4.5-0.4,9.3c-20.4,1.5-32.4,7.7-32.4,19.8c0,5.8,3.7,12.4,13.5,12.4
		c8.2,0,14-3.8,18-6.3c1.4,3.5,3.5,6.3,6.1,6.3C156.9,293.5,158.1,293,163.4,289.2 M150.4,263.7l-0.9,20.8c-5,3.5-10.1,4.7-13.4,4.7
		c-5.7,0-9.5-3.7-9.5-10C126.7,268.5,137.5,264.2,150.4,263.7 M131.6,216.6v-2.4c-3.3,0.1-6.7,0.3-9.5,0.3c-3.5,0-7.3-0.1-10.7-0.3
		v2.4c3.8,0.1,5.7,0.3,7.2,0.5c1.5,0.3,2,0.8,2,1.8c0,1.1-0.5,3-1,4.9l-20.3,58.9c-0.1,0.4-0.3,0.6-0.6,0.6c-0.3,0-0.4-0.3-0.5-0.6
		l-17.2-59.5c-0.6-2.2-0.9-3-0.9-4c0-1.1,0.8-2,3.1-2.2l5.9-0.5v-2.2c-2.2,0-9.3,0.3-14.1,0.3c-5.3,0-11.8-0.3-13.5-0.3v2.4
		c7.4,0.3,7.6,0.4,9.5,7.3l1.9,6.8l-18.3,52c-0.1,0.4-0.3,0.6-0.6,0.6c-0.3,0-0.4-0.3-0.5-0.6l-19.9-58.4c-0.6-1.8-1.1-3.9-1.1-5
		c0-1.9,1-2,8.4-2.6v-2.5c-2,0-8.8,0.3-13.4,0.3c-4.3,0-11-0.3-12.7-0.3v2.4c6.2,0.1,6.4,0.4,8.4,6.1l24,68.8c0.9,2.8,1.3,3.7,2,3.7
		c1.1,0,1.4-1.6,2.8-4c2.5-4.3,3.4-3.8,4.8-7.8l17.1-45.3c0.1-0.4,0.3-0.8,0.5-0.8c0.4,0,0.5,0.4,0.6,0.8l16,51.8c1.1,4,1.4,5,2.5,5
		c0.9,0,1.3-1.1,2.6-3.8c2.6-4.5,3.8-4,5.2-8.4l22.3-60.5C125.5,216.9,126.9,216.8,131.6,216.6"/>
	<path fill="#000000" d="M154.1,318.1c0-5.6,0-6.8,0.5-7.3c0.8-0.8,3-0.8,10.3-1v-2.4c-4.8,0.1-9.7,0.3-14.4,0.3
		c-4.3,0-10-0.1-13.4-0.3v2.4c4.5,0.4,5.8,0.4,6.7,1c0.6,0.5,0.6,1.9,0.6,7.3v43.5c0,9.1,2,14.4,9,19.3c6.1,4.2,13.4,5.7,22.3,5.7
		c10,0,18.3-3,23.3-7.7c6.8-6.3,7.8-12.9,7.9-25.1l0.4-35.9c0-5.4,0.1-6.6,0.5-7.3c0.4-0.5,1.8-0.8,7.1-1.1v-2.4
		c-1.4,0-7.3,0.3-10.9,0.3c-3.9,0-9.6-0.3-11.4-0.3v2.4c6.6,0.5,9.2,0.4,10.2,1.1c0.6,0.6,0.8,2.2,0.8,7.3c0,15.9,0.1,27.6,0.1,40.4
		c0,15-6.7,22.1-22.4,22.1c-7.2,0-14-1.1-19.4-4.9c-5.4-3.8-7.4-8.1-7.4-16.8v-40.6L154.1,318.1L154.1,318.1z M231,374
		c0,6.1,0.1,7.1,0.6,7.7c0.4,0.5,1.8,1,6.1,1.1v2.2c-1.4,0-7.3-0.3-11-0.3c-4.4,0-9.7,0.3-12,0.3v-2.2c5.3-0.1,6.7-0.6,7.2-1.1
		c0.5-0.6,0.6-1.5,0.6-7.7v-32.8c0-6.3-0.3-7.4-0.6-7.8c-0.5-0.5-1-0.6-2.6-0.6h-4.9l0.8-2.4l15.9-0.8c-0.1,2.6-0.5,7.1-0.5,8.3
		c0,0.5,0.1,0.8,0.4,0.8c0.3,0,0.5-0.1,1.4-0.9c5.3-4.8,11.8-8.1,18-8.1c5.7,0,9.8,1.6,12.6,4.5c3.8,3.9,4.9,9.6,4.9,17.4v22.6
		c0,6.1,0.1,7.1,0.6,7.7c0.4,0.5,1.8,1,6.1,1.1v2.2c-1.4,0-7.3-0.3-11-0.3c-4.4,0-9.7,0.3-12,0.3V383c5.3-0.1,6.7-0.6,7.2-1.1
		c0.5-0.6,0.6-1.5,0.6-7.7v-22.3c0-11.5-3.9-17.1-12.6-17.1c-4.2,0-9.1,1.5-15.7,7.1v32.2L231,374L231,374z M303.7,385.1v-2.2
		c-5.3-0.1-6.7-0.6-7.2-1.1c-0.5-0.6-0.6-1.5-0.6-7.7v-27.6c0-6.7,0.1-10.6,0.4-16.9l-17.7,0.8l-0.8,2.4h6.2c1.6,0,2.2,0.1,2.6,0.6
		c0.4,0.4,0.6,1.4,0.6,7.8V374c0,6.1-0.1,7.1-0.6,7.7c-0.4,0.5-1.8,1-8.1,1.1v2.2c2.2,0,8.4-0.3,12.9-0.3
		C295.3,384.8,302.3,385.1,303.7,385.1 M297.6,310.9c0-2.5-1.6-4.8-4.4-4.8c-4.3,0-6.4,3.9-6.4,6.4c0,2.5,1.6,4.9,4.4,4.9
		C295.3,317.6,297.6,313.6,297.6,310.9 M339.7,330.1c2.9,0.1,6.2,0.3,9.1,0.3c2.6,0,6.1-0.1,8.4-0.3v2.2c-5.3,0-5.6,0.4-7.6,4.9
		l-16,38.7c-1.3,3-1.9,2.6-4.2,6.3c-1.5,2.5-1.8,4.2-2.9,4.2c-1.8,0-0.8-2.5-6.7-18.2l-11-29.1c-1.6-4.4-2.2-5.7-3.1-6.2
		c-0.6-0.3-1.3-0.4-4-0.5v-2.2c2.6,0.1,7.6,0.3,11,0.3c3.8,0,7.9-0.1,11.8-0.3v2.2c-6.7,0.4-7.7,0.5-7.7,2c0,0.6,0.5,2,0.8,2.8
		l12.7,35.7c0.4,1.1,0.5,1.9,1,1.9c0.4,0,0.8-0.8,1.1-1.6l13-33.4c1-2.5,1.6-4.4,1.6-5.4c0-1.6-4.2-1.8-7.4-1.9V330.1L339.7,330.1z
		 M364.2,357.6c0-1.9,0-3.9,0.3-4.9l29.1,0.3l8.4-1.1c0-8.6-1.4-13-4.7-16.6c-3.8-4.2-9.2-6.4-16-6.4c-16,0-26.7,14.6-26.7,30.2
		c0,16.9,11,27.6,25.5,27.6c11.1,0,19.1-7.3,23.5-12.7l-1.5-1.5c-5.3,5.8-10.1,9.3-17.5,9.3C370.8,381.4,364.2,370.3,364.2,357.6
		 M364.6,350.4c1.4-11.1,7.6-19.2,16.6-19.2c9.3,0,12.9,8.3,12.6,19.1L364.6,350.4z M420.5,344.2c0,0.4,0,0.6,0.3,0.6
		c0.1,0,0.3-0.3,0.4-0.5c4.8-14,9.6-15.7,13.6-15.7c6.1,0,9.1,6.1,9.1,7.1c0,1.4-3.9,4.5-5.4,4.5c-1.1,0-1.4-0.1-3.5-2.4
		c-1.9-1.9-2.8-2.9-4.2-2.9c-3.9,0-9,9.7-9,17.1v25c0,2.8,0,3.7,0.4,4c0.5,0.6,2.6,1,9.7,1.5v2.2c-3.5,0-9.8-0.3-14.3-0.3
		c-3.8,0-10.6,0.3-12.1,0.3v-2.2c5.3-0.1,6.7-0.6,7.2-1.1c0.5-0.6,0.6-1.5,0.6-7.7V341c0-6.3-0.3-7.4-0.6-7.8
		c-0.5-0.5-1-0.6-2.6-0.6h-5l0.8-2.4l15.4-0.8L420.5,344.2z M446.3,378.6c0,2.5,5.9,7.9,16.2,7.9c12.6,0,20.3-7.7,20.3-16.6
		c0-8.1-3.8-11-15.3-16.2c-10.5-4.8-12.6-7.2-12.6-12.1c0-5.2,4-10.6,11.4-10.6c4.5,0,6.8,1.5,7.6,5.8c0.6,3.8,0.6,4.4,2,4.4
		c2,0,4.7-1,4.7-3.7c0-3.1-3.3-9.1-13.9-9.1c-12.7,0-19.3,8.4-19.3,16.5c0,6.7,3.7,10.7,14.1,15.7c9.6,4.4,13.7,6.4,13.7,12.7
		c0,5-4,10.6-10.9,10.6c-4.7,0-7.7-2.5-11.2-7.7c-1.6-2.4-2-3.3-2.8-3.3C449.2,373.3,446.3,376.5,446.3,378.6 M500.2,384.8
		c-4.4,0-10.7,0.3-12.9,0.3v-2.2c6.3-0.1,7.7-0.6,8.1-1.1c0.5-0.6,0.6-1.5,0.6-7.7v-32.8c0-6.3-0.3-7.4-0.6-7.8
		c-0.5-0.5-1-0.6-2.6-0.6h-6.2l0.8-2.4l17.7-0.8c-0.3,6.2-0.4,10.1-0.4,16.9v27.6c0,6.1,0.1,7.1,0.6,7.7c0.4,0.5,1.8,1,7.2,1.1v2.2
		C510.9,385.1,504,384.8,500.2,384.8 M499.7,317.6c-2.8,0-4.4-2.4-4.4-4.9c0-2.6,2.2-6.4,6.4-6.4c2.8,0,4.4,2.2,4.4,4.8
		C506.2,313.6,504,317.6,499.7,317.6 M595.3,332.6v-2.2c-2.5,0.1-5.7,0.3-8.3,0.3c-2.9,0-6.3-0.1-9.2-0.3v2.2
		c4.9,0.1,7.4,0.4,7.4,1.8c0,1.5-1,4.2-2.5,8.3L572,373.5c-0.3,0.5-0.6,1.6-1.1,1.6s-0.6-0.3-1-1.3l-14-36.3c-0.4-0.9-0.8-2-0.8-2.9
		c0-1.5,1.1-1.6,7.8-2v-2.2c-3.8,0.1-7.9,0.3-12,0.3c-1.6,0-3.8,0-5.6,0l-14-0.3c0.6-11.1,1-15.7,1-16.4c0-0.4-0.1-0.8-0.6-0.8
		c-0.4,0-0.5,0.1-0.9,0.6L517,333.1c-0.3,0.4-0.5,0.5-0.5,0.6c0,0.3,0.1,0.3,0.6,0.3c0.8,0,2-0.1,3.5-0.1c1.3,0,1.6,0.4,1.8,0.8
		c0.4,0.8,0.4,1.3,0.4,10.1v30c0,8.2,2.5,11.4,9,11.4c7.4,0,14.5-4.5,17.9-6.7l-0.3-1.8c-3.1,1.3-6.8,2.8-10.6,2.8
		c-7.6,0-7.6-3.9-7.6-18.4v-12.6c0-3.9,0.3-11.1,0.5-15.9l9.8-0.3c1.9,0.1,2.8,0.3,3.3,0.8c0.6,0.6,1.4,2.6,2.6,5.8l16.8,43.3
		c1,2.6,1.6,4.3,1.6,5.3c0,1.3-0.1,1.8-2.6,7.7c-2.2,5.2-3.8,5.4-11.5,7.3c-1.9,0.4-5.7,7.1-3.5,7.6c4,0.9,9.1-1.5,12.6-5.6
		c4.8-5.7,5-9.2,10.5-23.6l16.9-44.5c0.8-1.9,1.5-3.7,2.5-4.2C591.1,332.9,592.5,332.6,595.3,332.6"/>
	<line fill="none" x1="111.9" y1="629" x2="111.9" y2="307"/>
	<rect x="111" y="307" fill="#000000" width="1.9" height="321.9"/>
	<path fill="#000000" d="M108.7,381.2c-0.4,0.4-0.5,0.9-0.5,1.4c0,1.3,1.6,2.4,3.8,2.4h0.1v-0.5H112c-1.6,0-3.3-0.8-3.3-1.8
		c0-0.4,0.1-0.6,0.4-1c0.5-0.6,1.5-1,2.6-1c0.1,0,0.1,0,0.3,0v-0.5c-0.1,0-0.3,0-0.3,0C110.4,380,109.3,380.5,108.7,381.2
		 M75.9,411.3c-0.8,0.1-1.4,0.6-1.8,1.3c-0.3,0.4-0.4,0.9-0.3,1.4c0.3,1.1,1.6,1.8,3,1.4c1.4-0.3,2.4-1.5,2-2.6
		C78.7,411.7,77.3,411.1,75.9,411.3 M76.7,415c-1.1,0.3-2.4-0.3-2.5-1c-0.1-0.4,0-0.6,0.3-1c0.3-0.5,0.9-0.9,1.5-1
		c1.1-0.3,2.4,0.3,2.5,1C78.7,413.7,78,414.7,76.7,415 M110.3,409.2c0,0.4,0.3,0.9,0.5,1.1c0.3,0.3,0.6,0.5,1.1,0.6v-0.5
		c-0.3-0.1-0.6-0.3-0.8-0.5c-0.3-0.3-0.4-0.5-0.4-0.9c0-0.3,0.1-0.6,0.4-0.9c0.3-0.3,0.5-0.4,0.9-0.5v-0.5c-0.5,0.1-0.9,0.4-1.1,0.6
		C110.4,408.4,110.3,408.8,110.3,409.2 M31.1,332.3H112v-2H30.7c-0.1,0-1.6,0-2.4,1c-0.4,0.6,0,2.2,0.6,3.1l7.8,14
		C16.8,352,0.7,369.1,0,389.4c-0.8,22.4,11.4,34.6,25.5,41.6c2.8,9.1,10,15.3,19.8,16.5c-0.8,11.8-2,31.8-2.9,44l2,0.1
		c0.4-5.4,2.5-40.2,3.4-53.7c0.1-2,0.9-3.9,2.4-5.6c4.4-1.8,8.3-4.7,12-8.1c11.4-4.7,28.8-7.3,49.4-7.8v-1.9
		c-18.9,0.4-35.2,3-46.7,7.1c0.6-0.6,1.1-1.4,1.6-2.2c0.4-0.1,0.6-0.3,0.9-0.4c0.5,0,1,0,1.5-0.1s0.9-0.4,1.3-0.6
		c1.5-0.4,3.1-0.9,4.8-1.3c0.5,0,1,0,1.6-0.1c0.6-0.1,1.3-0.4,1.8-0.6c1.6-0.4,3.4-0.6,5-1c0.5,0,1.1,0.1,1.8,0
		c0.6-0.1,1.3-0.4,1.9-0.6c1.6-0.3,3.4-0.5,5-0.6c0.6,0.1,1.3,0.1,1.9,0.1c0.8-0.1,1.4-0.3,1.9-0.5c1.6-0.1,3.4-0.3,5.2-0.4
		c0.6,0.1,1.3,0.3,1.9,0.1c0.8,0,1.4-0.3,2-0.5c1.6-0.1,3.4-0.1,5-0.3c0.3,0.1,0.6,0.1,0.9,0.1v-0.9c-0.9-0.1-1.8-0.5-2.5-1
		c-0.4-0.4-0.6-0.9-0.6-1.4c0-1.3,1.3-2.4,3.1-2.6V404c-0.5,0.4-1,0.8-1.4,0.9c-0.5,0-1.1,0-1.8,0c-3.3-0.9-6.7-7.1-7.7-15.4
		c0.5,0,1-0.1,1.5-0.1c0.8,7.3,3.8,13.2,6.7,13.2c0.6,0,1.4-0.4,1.9-1c0.1-0.3,0.4-0.5,0.5-0.8v-0.9c-0.3,0.5-0.5,1-0.9,1.3
		c-0.5,0.5-1,0.8-1.6,0.9c-2.5,0-5.4-5.3-6.2-12.7c2.9-0.3,5.8-0.3,8.8-0.4v-0.5c-14.4,0.4-28,2.4-39.7,5.7
		c-0.1-0.5-0.1-0.9-0.3-1.4c1-0.3,2-0.6,3.3-0.9c0.6,0,1.3-0.1,1.9-0.3c0.8-0.1,1.4-0.4,2-0.8c2.6-0.6,5.3-1.1,8.1-1.6
		c0.4,0,0.8,0,1.1-0.1c0.5-0.1,1-0.3,1.5-0.4c3.3-0.5,6.4-0.9,9.8-1.3c0.1,0,0.1,0,0.1,0c0.1,0,0.1,0,0.3,0
		c3.8-0.4,7.7-0.6,11.7-0.8v-1c0,0,0,0-0.1,0c-3,0.1-5.6-1.3-5.7-3c0,0,0,0,0-0.1l0,0c0-0.5,0.3-1,0.6-1.5c1-1,2.9-1.8,4.8-1.8
		c0.1,0,0.3,0,0.4,0v-1.3c-2.2,0.1-4.3,0.1-6.3,0.4c-10.1-1.4-18.9-4.2-27-6.7c-4.3-1.4-8.4-2.8-12.4-3.7c4.8,0.9,9.6,2,14.6,3.4
		c9.7,2.5,19.7,4.9,31.1,5.7v-0.5c-11.2-0.6-21.3-3.3-31-5.6c-8.1-2-15.8-3.9-23.3-4.4c-1.4-0.1-2.9-0.3-4.3-0.3l0,0
		c-10.1,0-18.7,2.6-24.7,7.6s-9.3,11.8-9.3,20.1c0,11.8,9.3,21.1,21.3,21.1c12.7,0,20.6-9.6,20.6-18.4c0-4.8-2.4-9.2-6.1-11.8
		c-3.9-2.6-8.6-2.9-13.4-1c-4.2,1.6-7.4,5.3-7.4,10.1c0,3.3,1.1,5.9,3.3,7.7c3.1,2.5,7.3,1.9,7.7,1.9c-2.2,0.5-4.5,0.5-6.4-0.4
		c-3.5-1.5-5.8-5.3-5.8-9.2c0-9.5,9.2-13.4,14.1-13.4c7.9,0,16.4,5.6,16.4,15.9c0,11.8-11.7,20.6-22.2,20.6
		c-6.1,0-12.2-1.9-16.8-5.4c-5.8-4.4-9-11.1-9-19.3c0-8.1,3.1-15,9.1-20.4c7.9-7.2,19.7-10.6,32.5-9.5c7.4,0.6,14.9,2,23,3.5
		c10.2,1.9,20.7,4.2,31.8,4.8V369c-10.9-0.5-21.4-2.4-31.7-4.3c-8.1-1.4-15.5-2.9-23.1-3.5c-13.1-1.1-25.1,2.4-33.2,9.7
		c-6.2,5.6-9.5,13-9.5,21.3c0,8.6,3.3,15.5,9.2,20.1c4.7,3.5,11,5.6,17.3,5.6c8.4,0,17.5-5.4,21.3-13.6c-0.6,1.5-1.4,3-2.2,4.2
		c-4.4,6.2-12.7,10.5-20.6,10.5c-6.7,0-13.4-2.2-18.2-5.9c-5.8-4.7-8.8-11.8-8.8-20.4c0-4.2,0.8-8.1,2-11.5
		c1.6-4.4,4.4-8.3,8.2-11.7c4.7-4,10.7-7.1,17.7-8.7c6.2-1.5,13.1-1.9,19.1-1c6.6,0.9,12.9,2,18.9,3.1c11,1.9,21.6,3.8,33.3,4.3
		v-0.5c-11.7-0.5-22.2-2.4-33.2-4.3c-6.1-1-12.4-2.2-18.9-3.1c-1.3-0.1-2.8-0.3-4.2-0.4c1.4,0,2.9,0.1,4.2,0.3
		c3,0.4,6.4,0.8,10.1,1.3c12.4,1.6,27.4,3.7,42.1,4.2v-0.5c-14.8-0.4-29.7-2.5-42-4.2c-3.7-0.5-7.2-0.9-10.1-1.3
		c-10.3-1.3-26.4,0.8-37.2,10.5c-3.4,3-5.9,6.4-7.8,10.5l0,0c-0.1,0.4-0.3,0.8-0.4,1.1c-1.4,3.7-2.2,7.7-2.2,12
		c0,18.7,13.7,27,27.5,27c8.1,0,16.5-4.3,21.1-10.6c2.4-3.3,4.5-8.3,3.4-15c-0.1-0.8-0.5-2.8-1-3.8C58.9,383.3,52.4,380,46,380
		c-5.3,0-15.1,4.3-15.1,14.4c0,4.3,2.6,8.3,6.4,10.1c3.1,1.4,7.2,1,10-0.8c0.5-0.3,0.9-0.6,1.4-1.1c1.9-1.4,3.1-3.7,3.1-6.1
		c0-4.2-3.4-7.6-7.6-7.6c-0.9,0-1.8,0.1-2.8,0.5c1.4-0.8,2.9-1.1,4.2-1.1c2.2,0,4.3,0.9,5.7,2.5c1.5,1.6,2.5,4,2.4,6.4
		c-0.4,6.7-6.8,10.7-13,10.7c-4.9,0-12.6-5.3-12.6-13.2c0-9.5,8.2-16.9,18.5-16.9c9.1,0,18.8,7.7,18.8,19.1c0,5.9-2.8,12.4-7.3,16.9
		c-3.8,3.9-10.7,8.4-22.2,8.4c-8.1,0-15-2.9-20.4-8.4c-5.7-5.8-9.2-14.4-9.1-22.3c0.5-26.7,25.2-36.3,36.5-36.7
		c7.9-0.3,17.9,0.1,29.4,0.5c11.1,0.4,23.6,1,38.1,1.3v-1.3c-14.5-0.1-27-0.5-38.1-0.9c-11.5-0.4-21.7-0.8-29.5-0.5
		c-11.5,0.4-36.8,10.2-37.3,37.6c-0.1,8.2,3.4,17,9.3,23.1c5.6,5.7,12.9,8.7,21.2,8.7c4.2,0,7.7-0.6,10.6-1.5
		c-3.3,1.1-7.1,1.8-11.4,1.8c-23,0-31.4-19.4-31.4-32.5c0-15,7.7-24.2,14-29.3c7.6-5.8,17.5-9.3,26.9-9.3c5.6,0,13.6,0.1,23,0.1
		c12.4,0.1,27.4,0.3,42.9,0.3v-0.5c-15.5,0-30.6-0.1-42.9-0.4c-9.3-0.1-17.4-0.1-23-0.1c-9.3,0-19.4,3.5-27.1,9.5
		c-6.4,5-14.3,14.4-14.3,29.5c0,7.9,2.8,15.9,7.6,21.9c4,5,11.5,11.1,24.4,11.1c12,0,19.3-5,23.5-9.5l0.1-0.1
		c0.1-0.1,0.1-0.3,0.3-0.4c0.6-0.8,1.3-1.5,1.8-2.2c0.4-0.5,0.6-0.9,1-1.4c0.8-1.1,1.4-2.2,1.8-3.1c0.1-0.4,0.4-0.6,0.5-1
		c0-0.1,0.1-0.1,0.1-0.3c0.3-0.6,0.5-1.1,0.5-1.1l0,0c0.9-2.6,1.5-5.4,1.5-8.1c0-12-10.2-20.1-19.7-20.1c-11,0-19.6,7.8-19.6,17.8
		c0,8.7,8.1,14.1,13.5,14.1c6.4,0,13.5-4.4,13.9-11.7c0.1-2.8-0.8-5.3-2.6-7.2c-1.6-1.8-4-2.8-6.4-2.8s-5.8,1.4-7.7,4
		c-0.6,0.9-1.1,2.2-1.1,3.9c-0.1,0.4-0.1,0.9-0.1,1.3c0,0.1,0,0.3,0,0.4c-0.3-0.8-0.4-1.5-0.4-2.5c0-5.2,5.6-8.1,9.5-8.1
		c5,0,10.2,3.7,10.2,10.7c0,7.7-8.2,13.4-15.4,13.4c-7.2,0-15.1-6.6-15.1-16c0-9.3,8.3-19.6,21.7-19.6c10.9,0,21.9,7.8,21.9,22.7
		c0,7.3-1.8,15.4-7.8,21.2c-6.4,6.2-14.1,10.6-26.7,10.2c-19.9-0.8-34.3-18-33.6-38.9c1.7-21.6,20.5-39.7,42.7-39.7h68.2v-2.5
		c-0.4,0.1-0.6,0.3-1,0.4h-1.5c-3.3-0.9-6.1-6.6-6.4-13.4h1.4c0.4,6.6,2.9,11.8,5.8,11.8c0.6,0,1.3-0.3,1.8-0.9v-0.6l-0.1,0.1
		c-0.5,0.5-1.1,0.9-1.6,0.9c-2.6,0-4.9-5-5.3-11.2h7.2v-0.5H30.4c-0.1-0.1-0.1-0.3-0.1-0.3c-0.3-0.5-0.4-0.9-0.3-1
		C30.1,332.5,30.8,332.3,31.1,332.3 M51.1,393.9c-0.6,3.3-3.3,4.5-5.9,4.8c-4.3,0.3-5.9-3-5.9-3c-0.5,1,0.6,6.1,5.9,6.1
		C48.4,401.9,52.1,398.5,51.1,393.9 M71.6,417.5c0.5-0.5,0.8-1,1-1.6c0.1,0.1,0.3,0.4,0.5,0.5c0.4,0.3,0.8,0.4,1.3,0.5
		C73.4,417,72.6,417.2,71.6,417.5 M71.7,412.8c-0.1-0.1-0.4-0.3-0.5-0.4c0.4-0.1,0.6-0.1,1-0.3C71.9,412.3,71.8,412.6,71.7,412.8
		 M77,416c-1.3,0.3-2.5,0.1-3.4-0.4c-0.5-0.3-0.8-0.8-0.9-1.3v-0.1l0,0c-0.3-1.4,1.1-2.9,3.3-3.4c1.3-0.3,2.5-0.1,3.4,0.4
		c0.5,0.4,0.9,0.8,1,1.3C80.4,414,79,415.6,77,416 M72.9,402.5c0-0.4,0.1-0.8,0.1-1.3c0-0.5,0-1.1,0-1.6c0.8,1.6,1.5,3.3,2.5,4.5
		c0.3,0.4,0.5,0.8,0.6,0.9c0.1,0.1,0.3,0.4,0.4,0.5l0.4,3.8c-0.1,0-0.3,0-0.4,0.1c-0.1,0-0.1,0-0.3,0l-3.5-4c0-0.3-0.1-0.4-0.1-0.6
		c0-0.1,0-0.3,0-0.4C72.9,404.1,73.1,403.5,72.9,402.5 M73.3,407.5l2,2.4c-0.6,0.1-1.3,0.4-1.9,0.5
		C73.4,409.7,73.4,408.7,73.3,407.5 M77.9,409.2l-0.3-2.4c0.8,0.8,1.5,1.4,2.4,1.8C79.3,408.9,78.5,409.1,77.9,409.2 M81,410
		c-0.3,0.4-0.5,0.6-0.6,1c-0.3-0.3-0.4-0.5-0.8-0.6h-0.1C80,410.3,80.5,410.2,81,410 M79.8,415.6c0.5-0.5,1-1,1.3-1.6
		c0.1,0.1,0.4,0.4,0.5,0.5c0.4,0.3,0.8,0.4,1.3,0.5C81.8,415.2,80.6,415.3,79.8,415.6 M85.6,414.3c-1.3,0.3-2.8,0-3.5-0.6
		c-0.5-0.4-0.8-0.8-0.9-1.3c-0.3-1.4,1.4-3,3.7-3.4c2.2-0.4,4.2,0.5,4.4,1.9C89.3,412.5,87.8,414,85.6,414.3 M84.7,407.8
		c0.3-0.8,0.5-1.9,0.5-3.3l2,2.9C86.4,407.5,85.4,407.7,84.7,407.8 M90.2,408.4c-0.1,0.1-0.3,0.3-0.4,0.4c-0.1,0.3-0.3,0.5-0.4,0.8
		c-0.3-0.4-0.6-0.6-1-0.9C89.1,408.5,89.6,408.5,90.2,408.4 M89.6,404c0.9,1.1,1.8,1.9,2.8,2.6c-0.9,0.1-1.8,0.3-2.8,0.4V404z
		 M88.5,414c0.6-0.5,1.1-1,1.4-1.6c0.1,0.3,0.3,0.4,0.5,0.6c0.4,0.3,0.9,0.4,1.3,0.6C90.6,413.7,89.6,413.9,88.5,414 M94.7,413.1
		c-1.4,0.1-2.8-0.1-3.7-0.9c-0.5-0.4-0.8-0.9-0.8-1.3c0-0.5,0.1-1,0.5-1.5c0.6-0.9,1.9-1.4,3.4-1.6c2.4-0.3,4.3,0.8,4.4,2.2
		C98.6,411.4,96.9,412.8,94.7,413.1 M97.8,407.5c0.6-0.1,1.3-0.1,1.9-0.1c-0.4,0.3-0.6,0.6-0.9,1C98.6,408,98.2,407.8,97.8,407.5
		 M97.7,412.8c0.6-0.4,1.1-0.9,1.4-1.5c0.1,0.1,0.3,0.4,0.5,0.5c0.4,0.3,0.8,0.5,1.3,0.6C99.7,412.7,98.7,412.8,97.7,412.8
		 M103.7,412.3c-1.4,0.1-2.8-0.3-3.7-1c-0.5-0.4-0.8-0.9-0.8-1.4c-0.1-1.4,1.6-2.9,4-3c1.4-0.1,2.9,0.3,3.7,1
		c0.5,0.4,0.8,0.9,0.8,1.4C107.9,410.8,106.1,412.1,103.7,412.3 M108.8,411.4c0.3,0.3,0.6,0.5,1,0.8c-1,0-2,0.1-3.1,0.1
		c0.6-0.4,1.3-0.9,1.5-1.4C108.5,411.1,108.7,411.2,108.8,411.4 M109.2,406.8c-0.4,0.4-0.8,0.8-1,1.1c-0.1-0.3-0.3-0.5-0.5-0.6
		c-0.1-0.1-0.5-0.3-0.6-0.4C107.8,406.8,108.5,406.8,109.2,406.8 M103.7,401.9c0.9,1.5,1.9,2.6,3,3.4c-1.1,0.1-2.5,0.3-3.7,0.3
		L103.7,401.9z M99.1,400c0.4-0.4,0.9-1.3,0.8-3c0-0.6-0.4-3.7-0.6-7.3c0.3,0,0.6,0,0.9-0.1c0.3,3.1,0.9,5.9,1.8,8.4
		c0.1,0.8,0.5,1.4,0.8,1.6c0.1,0.3,0.1,0.4,0.3,0.6l-0.9,5h-0.1L99.1,400C99.1,400.1,99.1,400.1,99.1,400 M100.9,405.6
		c-1,0.1-2.2,0.1-3.3,0.3c0.6-0.9,1-2.2,1.3-4L100.9,405.6z M95.6,390.1c0.5,6.3,0.9,11.7-0.4,13.1c-0.3,0.3-0.5,0.4-0.9,0.4
		c-2.4,0-5.7-5.6-6.8-12.5C90.1,391,92.9,390.5,95.6,390.1 M87.1,391.5c1.3,7.3,4.8,12.9,7.4,12.9c0.5,0,0.9-0.1,1.3-0.5
		c1.5-1.6,1-7.2,0.5-13.5c0.5,0,1.1-0.1,1.8-0.1c0.8,8.8,0.3,14.1-1.4,15.9l0,0c-0.9,0.1-1.6,0.3-2.6,0.4c-3.1-1-6.8-7.1-8.2-14.8
		C86.1,391.6,86.7,391.5,87.1,391.5 M84.8,391.9c0.5,3,1.4,5.8,2.5,8.2c0.3,1.1,0.8,1.9,1.1,2.4c0,0.1,0.1,0.1,0.1,0.3v4.5
		c-0.1,0-0.3,0-0.4,0.1L85,403c0-0.4-0.1-0.8-0.1-1.1c0.3-0.5,0.4-1.3,0.3-2.4c-0.1-0.8-0.5-3.7-1.1-7.4
		C84.3,391.9,84.6,391.9,84.8,391.9 M80.3,392.6c0.3,1.6,0.6,3.4,0.9,4.8c0.8,4,1.4,7.2,0.6,8.1c-0.1,0.1-0.4,0.3-0.6,0.3
		c-2,0-5.9-4.9-7.8-11.5C75.6,393.8,78,393.2,80.3,392.6 M73.1,394.4c1.8,6.6,5.7,11.8,8.3,11.8c0.4,0,0.8-0.1,1-0.4
		c0.9-1.1,0.3-4.2-0.5-8.4c-0.3-1.4-0.6-3.1-0.9-4.8c0.6-0.1,1.3-0.3,1.9-0.4L83,393c1.1,7.1,2,13.1,0.6,15c-0.6,0.1-1.4,0.3-2,0.4
		c-2.8-0.8-6.6-5.3-8.8-12c-0.1-0.6-0.1-1.3-0.3-1.9C72.7,394.5,72.8,394.5,73.1,394.4 M72.3,407.5c0.3,1.3,0.3,2.5,0.1,3.1
		c-0.4,0.1-0.6,0.3-1,0.3C71.6,409.9,71.9,408.7,72.3,407.5 M71.7,392c-0.1-0.3-0.1-0.6-0.3-0.9c0.4,0.3,0.8,0.5,1.3,0.6
		C72.6,391.8,72.1,391.9,71.7,392 M77,390.6c-2.9,0.6-5.7-0.3-6.1-2c-0.1-0.5,0-1.1,0.3-1.8c0.6-1.1,2.2-2,4-2.6
		c2.9-0.6,5.7,0.3,6.1,2c0.1,0.5,0,1.1-0.4,1.8C80.3,389.4,78.7,390.3,77,390.6 M79.5,383.7c0.9-0.3,1.9-0.4,3-0.6
		c-0.1,0.1-0.4,0.4-0.5,0.5c-0.3,0.4-0.4,0.8-0.5,1.1C80.8,384.2,80.1,383.8,79.5,383.7 M81.2,389.4c0.3-0.3,0.4-0.5,0.6-0.8
		c0.3-0.4,0.3-0.6,0.4-1c0.5,0.5,1.3,0.9,2,1.1C83.3,389,82.3,389.2,81.2,389.4 M88.3,388.2c-3,0.5-5.7-0.6-6.1-2.4
		c-0.1-0.5,0-1.1,0.5-1.6c0.8-1.1,2.5-2,4.4-2.4c3-0.5,5.7,0.6,6.1,2.5c0.1,0.5,0,1.1-0.5,1.8C91.9,387.1,90.1,387.8,88.3,388.2
		 M91.5,381.2c1-0.1,2-0.3,3.1-0.5c-0.3,0.3-0.5,0.4-0.8,0.6c-0.3,0.3-0.4,0.6-0.5,1C92.9,382,92.2,381.7,91.5,381.2 M92.5,387.5
		c0.4-0.3,0.8-0.6,1-1c0.1-0.3,0.3-0.5,0.4-0.9c0.5,0.6,1.3,1,2.2,1.4C94.8,387.1,93.6,387.3,92.5,387.5 M100,386.6
		c-3,0.3-5.7-0.9-5.9-2.8c-0.1-0.5,0.1-1.1,0.5-1.6c0.9-1,2.8-1.9,4.7-2c3-0.3,5.6,0.9,5.9,2.6l0,0v0.1c0,0.5-0.1,1.1-0.5,1.6
		C103.6,385.5,102,386.5,100,386.6 M107.8,385.8c-1.3,0.1-2.6,0.1-3.9,0.3c0.5-0.4,1-0.6,1.3-1.1c0.1-0.3,0.3-0.5,0.4-0.8
		C106.2,385,106.9,385.5,107.8,385.8 M107,379.7c-0.4,0.3-0.6,0.5-0.9,0.8c-0.3,0.3-0.4,0.5-0.5,0.9c-0.4-0.5-1-1-1.8-1.4
		C104.7,379.8,105.9,379.7,107,379.7 M54.9,385c3.8,2.5,5.9,6.7,5.9,11.4c0,8.7-7.8,18-20.2,18c-11.7,0-20.8-9.1-20.8-20.6l0,0
		c0-8.1,3.1-14.8,9.2-19.7c5.9-4.8,14.4-7.4,24.4-7.4c1.4,0,2.9,0.1,4.2,0.3c6.6,0.6,13.2,2.8,20.8,5.2c7.6,2.4,15.7,4.9,25,6.3
		c-3.5,0.3-6.8,0.6-10.1,1.1c-5.2-1.4-9.8-3.1-14.3-4.7c-8.7-3.1-17-6.1-27.2-6.1c-22.1,0-29.9,14.9-29.9,24.9c0,3.8,1.3,7.7,3.5,11
		c1.1,2,2.9,3.8,5,5c3,1.9,6.4,3.3,10.6,3.3c10.6,0,19.3-7.7,19.3-17c0-5.4-2.6-9.3-6.2-11.5C54.4,384.7,54.6,384.7,54.9,385
		 M48.1,372.7c-14.3,0-23.1,10.9-23.1,20.8c0,10.2,8.7,17.5,16.6,17.5s16.9-6.1,16.9-14.8c0-8.1-5.8-12.2-11.7-12.2
		c-5.2,0-10.9,3.9-10.9,9.5c0,2.6,1,4.9,2.8,6.7c-0.1,0-0.1-0.1-0.3-0.1c-1.8-1.4-2.8-3.8-2.8-6.6c0-5.7,5.8-9.7,11.1-9.7
		c5.8,0,12,4.3,12,12.2c0,8.6-8.1,15.5-17.9,15.5c-10.2,0-18.3-9.5-17.3-19.9c1-10.7,10.5-20.6,25.4-20.6c13.1,0,21.2,7.7,28.9,11.5
		c-3.8,0.9-5.3,1.4-8.7,2.6C65.1,377,56.4,372.7,48.1,372.7 M69.9,386.5c0.1,0,0.4-0.1,0.5-0.1c-0.1,0.1-0.1,0.1-0.3,0.3
		c-0.1,0.1-0.1,0.3-0.1,0.5C70,386.7,70,386.6,69.9,386.5 M69.9,414.5c0.1,0.1,0.3,0.3,0.4,0.5c0.3,0.9-0.4,1.8-1.4,2
		c-0.1,0-0.3,0-0.4,0C69,416.1,69.4,415.3,69.9,414.5 M68.1,417.5c0.3,0,0.5,0,0.8-0.1c1.3-0.4,2-1.6,1.6-2.8
		c-0.1-0.4-0.3-0.6-0.6-0.8c0.1-0.3,0.3-0.5,0.4-0.8l0,0c0.5,0.3,0.9,0.8,1.1,1.3v0.1v0.1c0.3,1.4-0.8,2.9-2.6,3.5
		c-0.5,0.1-0.9,0.1-1.4,0.1C67.9,417.9,68,417.8,68.1,417.5 M46.6,433.8c0.3,0,0.5-0.1,0.8-0.3c-0.5,0.9-0.9,1.9-1,3
		c0-0.3-0.1-0.4-0.1-0.6C46.3,435.2,46.5,434.5,46.6,433.8 M46.1,433.9c-0.1,0.6-0.3,1.3-0.3,1.9s0.1,1.6,0.4,2.4
		c-0.1,0-0.3-0.4-0.3-0.4c-0.8-1.1-1.3-2.4-1.5-3.5C44.9,434.1,45.6,434,46.1,433.9 M42.9,434.4c0.1,0.8,0.4,1.4,0.8,2.2
		c-1-0.6-1.9-1.3-2.9-2C41.5,434.5,42.2,434.4,42.9,434.4 M38.6,434.5c1.8,1.9,4,3.4,6.3,4.5c0.3,0.4,0.5,0.8,0.9,1.1
		c-4.5-1.1-8.1-3.4-10.7-6.2C36.4,434.3,37.5,434.4,38.6,434.5 M33.6,433.8c3,3.4,7.1,6.2,12.4,7.6c0,0.3,0,0.6,0,0.9
		c-7.2-0.6-12.9-4.2-16.4-9.5C30.9,433.1,32.3,433.4,33.6,433.8 M39.1,348.1c0.1-0.1,0.3-0.1,0.3-0.3c0.5-0.8,0.6-1.8,0.8-3.1
		l2.5,3.1C41.5,347.9,40.4,348,39.1,348.1 M44.8,347.9l0.1-3.1c1,1.3,2,2.4,3.1,3.1H44.8z M53,347.9C53,347.7,53.2,347.7,53,347.9
		c0.6-0.8,0.9-1.9,1-3.3l2.4,3.3H53z M58.6,347.9l0.4-3.3c1,1.4,1.9,2.5,3,3.3H58.6z M67.2,347.9c0.1-0.1,0.1-0.1,0.3-0.1
		c0.6-0.8,1-1.8,1.1-3.1l2,3.4h-3.5V347.9z M72.8,347.9l0.6-3.4c0.9,1.4,1.9,2.6,3,3.4H72.8z M87.7,347.9l0.9-3.4
		c0.9,1.4,1.8,2.6,2.9,3.4H87.7z M97.2,347.9c0.1-0.1,0.3-0.3,0.4-0.4c0.6-0.8,1.3-1.8,1.6-3.1l1.6,3.5H97.2L97.2,347.9z
		 M107.3,347.9h-4.2l1.3-3.8C105.2,345.7,106.2,347,107.3,347.9 M100.2,334.5h1.6l0.5,6.7c0.1,1.4,0.8,2,1.1,2.5l-1.4,4.2l0,0
		l-2-4.3c0.4-0.4,0.9-1,0.8-2.5L100.2,334.5z M97.3,334.5c0.5,4.7-0.1,8.8-1.6,10.5c-0.4,0.5-0.9,0.8-1.4,0.8c-2.5,0-5-5.2-5.7-11.2
		h8.8V334.5z M88,334.5c0.8,6.6,3.5,11.8,6.2,11.8c0.6,0,1.3-0.3,1.8-0.9c1.6-1.8,2.4-6.1,1.8-10.9h1.4c0.5,5.3-0.4,10.1-2.4,12.4
		c-0.5,0.5-1,0.9-1.6,1h-1.6c-3.1-0.9-6.2-6.6-7.1-13.4H88V334.5z M85.4,334.5l1,6.7c0.3,1.4,0.9,2,1.3,2.4l-1.1,4.2l0,0l-2.5-4.3
		c0.4-0.4,0.8-1,0.6-2.5l-1-6.6L85.4,334.5L85.4,334.5z M85.6,347.9h-3.8c0.1-0.1,0.3-0.1,0.4-0.3c0.6-0.8,1.1-1.8,1.4-3.1
		L85.6,347.9z M80.9,334.5c0.9,4.8,0.5,9.1-0.8,10.6c-0.4,0.4-0.8,0.6-1.3,0.6c-2.2,0-5.2-5.2-6.3-11.2H80.9z M72.1,334.5
		c1.3,6.6,4.3,11.8,6.7,11.8c0.6,0,1.1-0.3,1.5-0.8c1.4-1.8,1.8-6.1,0.9-11h1.4c1,5.4,0.4,10.2-1.4,12.5c-0.4,0.5-0.9,0.8-1.3,0.9
		h-1.5c-3.1-0.9-6.4-6.6-7.8-13.4L72.1,334.5L72.1,334.5z M69.7,334.5l1.5,6.8c0.3,1.4,1,2,1.5,2.4l-0.8,4.2l-2.8-4.3
		c0.4-0.4,0.6-1,0.4-2.5l-1.4-6.6C68.2,334.5,69.7,334.5,69.7,334.5z M65.1,334.5c1.3,4.9,1.3,9.2,0.1,10.7c-0.3,0.4-0.6,0.5-1,0.5
		c-2,0-5.3-5.2-6.8-11.2H65.1L65.1,334.5z M56.7,334.5c1.6,6.6,4.9,11.8,7.4,11.8c0.5,0,1-0.3,1.4-0.8c1.3-1.6,1.3-6.1,0-11h1.4
		c1.4,5.4,1.3,10.5-0.4,12.6c-0.3,0.4-0.6,0.6-1,0.8H64c-3.1-0.9-6.7-6.6-8.6-13.4L56.7,334.5L56.7,334.5z M54.4,334.5l2,6.8
		c0.4,1.4,1.3,2,1.6,2.4l-0.5,4.2l-3.1-4.3c0.3-0.4,0.6-1.1,0.3-2.5l-1.9-6.6C52.8,334.5,54.4,334.5,54.4,334.5z M49.9,334.5
		c1.6,4.9,2,9.5,1,10.9c-0.3,0.3-0.5,0.4-0.8,0.4c-1.9,0-5.4-5.2-7.6-11.2L49.9,334.5L49.9,334.5z M41.9,334.5
		c2.2,6.6,5.8,11.8,8.1,11.8c0.5,0,0.9-0.3,1.1-0.6c1.1-1.5,0.8-6.1-0.9-11.1h1.3c1.9,5.6,2.2,10.7,0.8,12.7
		c-0.3,0.3-0.5,0.5-0.8,0.6H50c-3-0.9-7.2-6.6-9.5-13.4h1.4V334.5z M39.5,334.5l2.6,6.8c0.5,1.4,1.4,2,1.8,2.4l-0.1,4l-3.5-4.3
		c0.3-0.4,0.5-1.1,0-2.5l-2.5-6.4C37.9,334.5,39.5,334.5,39.5,334.5z M36.9,334.5L36.9,334.5c2.9,6.6,3,11.2,1.9,12.9
		c-0.1,0.3-0.4,0.4-0.6,0.5c-0.3-0.5-0.6-1.1-1-1.8c0.1-0.1,0.3-0.3,0.4-0.4c1-1.5,0.1-5.9-1.9-11.2H37v0.1H36.9z M35,334.5
		c2,5,3,9.6,2,11c0,0.1-0.1,0.1-0.3,0.1c-2-3.8-5.2-9.2-6.2-11.1C30.5,334.5,35,334.5,35,334.5z M84.8,409.7
		c-1.5,0.3-2.6,1.4-2.4,2.5c0.1,0.4,0.4,0.9,0.8,1.1c0.6,0.4,1.4,0.6,2.4,0.4c1.5-0.3,2.6-1.3,2.4-2.5
		C87.7,410.2,86.4,409.3,84.8,409.7 M85.4,413.2c-0.8,0.1-1.4,0-1.9-0.4c-0.3-0.3-0.5-0.5-0.5-0.8c-0.1-0.9,0.8-1.6,1.9-1.9
		c1.3-0.3,2.4,0.4,2.5,1.1C87.6,412.2,86.7,413,85.4,413.2 M87.2,382.5c-1.1,0.1-2.2,0.8-2.8,1.5c-0.4,0.5-0.5,0.9-0.4,1.4
		c0.3,1.3,2,2.2,3.9,1.8c1.1-0.1,2.2-0.8,2.8-1.5c0.4-0.5,0.5-0.9,0.4-1.4C91,383.1,89.1,382.3,87.2,382.5 M90.4,385.6
		c-0.5,0.6-1.3,1.1-2.5,1.3c-1.6,0.3-3.3-0.4-3.4-1.4c-0.1-0.4,0-0.8,0.3-1c0.5-0.6,1.3-1.1,2.5-1.3c1.6-0.3,3.3,0.4,3.4,1.4
		C90.7,384.8,90.6,385.2,90.4,385.6 M99.3,380.8c-1.1,0.1-2.2,0.6-2.9,1.3c-0.4,0.4-0.5,0.9-0.5,1.4c0.1,1.3,1.9,2.2,3.9,2
		c1.1-0.1,2.2-0.6,2.9-1.3c0.4-0.4,0.5-0.9,0.5-1.4C103,381.7,101.3,380.7,99.3,380.8 M102.3,384.1c-0.5,0.6-1.4,1-2.6,1.1
		c-1.6,0.1-3.3-0.5-3.4-1.6c0-0.4,0.1-0.8,0.4-1c0.5-0.6,1.4-1,2.6-1.1c1.6-0.1,3.3,0.5,3.4,1.6
		C102.7,383.3,102.6,383.7,102.3,384.1 M75.3,385.2c-1.1,0.3-2,0.9-2.6,1.6c-0.3,0.5-0.4,1-0.3,1.5c0.4,1.3,2.2,1.9,4,1.5
		c1.1-0.3,2-0.9,2.6-1.6c0.3-0.5,0.4-1,0.3-1.5C79.1,385.5,77.3,384.7,75.3,385.2 M78.7,388c-0.4,0.6-1.3,1.1-2.2,1.4
		c-1.6,0.4-3.1-0.1-3.5-1.3c-0.1-0.4,0-0.8,0.1-1.1c0.4-0.6,1.3-1.1,2.2-1.4c1.6-0.4,3.3,0.1,3.5,1.3C79.1,387.3,79,387.7,78.7,388
		 M94,408.3c-1.5,0.1-2.8,1.3-2.6,2.4c0,0.4,0.3,0.9,0.6,1.1c0.5,0.5,1.4,0.6,2.4,0.5c0.9-0.1,1.6-0.5,2.2-1
		c0.3-0.4,0.4-0.9,0.4-1.3s-0.3-0.9-0.6-1.1C95.9,408.4,94.9,408.2,94,408.3 M96.4,411.1c-0.4,0.5-1,0.8-1.8,0.9
		c-0.8,0.1-1.5-0.1-1.9-0.5c-0.3-0.3-0.5-0.5-0.5-0.9c-0.1-0.9,0.9-1.6,2-1.8c0.8-0.1,1.5,0.1,1.9,0.5c0.3,0.3,0.5,0.5,0.5,0.9
		C96.7,410.6,96.7,410.8,96.4,411.1 M103.5,407.5c-0.9,0-1.6,0.4-2.2,1c-0.4,0.4-0.5,0.8-0.5,1.3c0.1,1.1,1.4,1.9,3,1.9
		c0.9-0.1,1.6-0.4,2.2-1c0.4-0.4,0.5-0.8,0.4-1.3c0-0.4-0.3-0.9-0.6-1.1C105.4,407.7,104.4,407.4,103.5,407.5 M105.6,410.4
		c-0.4,0.5-1.1,0.8-1.9,0.9c-1.3,0.1-2.5-0.5-2.5-1.4c0-0.4,0.1-0.6,0.4-0.9c0.4-0.5,1.1-0.8,1.9-0.8c0.8,0,1.5,0.1,1.9,0.5
		c0.3,0.3,0.4,0.5,0.5,0.9C106,409.8,105.9,410.2,105.6,410.4"/>
</g>
</svg>
